Complete name                            : Lucky.Bastard.2013.HDRiP.AC3-2.0.XviD-AXED
Format                                   : AVI
Format/Info                              : Audio Video Interleave
File size                                : 1.35 GiB
Duration                                 : 1h 33mn
Overall bit rate                         : 2 052 Kbps

Video
ID                                       : 0
Format                                   : MPEG-4 Visual
Format profile                           : Advanced Simple@L5
Format settings, BVOP                    : 2
Format settings, QPel                    : No
Format settings, GMC                     : No warppoints
Format settings, Matrix                  : Default (H.263)
Muxing mode                              : Packed bitstream
Codec ID                                 : XVID
Codec ID/Hint                            : XviD
Duration                                 : 1h 33mn
Bit rate                                 : 1 851 Kbps
Width                                    : 720 pixels
Height                                   : 400 pixels
Display aspect ratio                     : 16:9
Frame rate                               : 29.970 fps
Color space                              : YUV
Chroma subsampling                       : 4:2:0
Bit depth                                : 8 bits
Scan type                                : Progressive
Compression mode                         : Lossy
Bits/(Pixel*Frame)                       : 0.214
Stream size                              : 1.21 GiB (90%)
Writing library                          : XviD 64

Audio
ID                                       : 1
Format                                   : AC-3
Format/Info                              : Audio Coding 3
Mode extension                           : CM (complete main)
Format settings, Endianness              : Big
Codec ID                                 : 2000
Duration                                 : 1h 33mn
Bit rate mode                            : Constant
Bit rate                                 : 192 Kbps
Channel(s)                               : 2 channels
Channel positions                        : Front: L R
Sampling rate                            : 44.1 KHz
Bit depth                                : 16 bits
Compression mode                         : Lossy
Stream size                              : 129 MiB (9%)
Alignment                                : Aligned on interleaves
Interleave, duration                     : 70 ms (2.09 video frames)
Interleave, preload duration             : 208 ms

SOURCE:
720p Super Secret Source

NOTES:
Enjoy this new found footage thriller that takes you inside the world 
of the last days of a porn site.  The film hit limited theaters on April 5.

Cast: Betsy Rue, Don McManus, Jay Paulson

Plot: a "found footage" thriller about a porn website run by Mike (Don McManus) 
that invites fans to have sex with porn stars.... 

IMDb:
 
http://www.imdb.com/title/tt2417854/

Screens: 
 
http://imageshack.us/a/img703/9647/scrncp00009h.png
 
http://imageshack.us/a/img22/5965/scrncp00013.png
 
http://imageshack.us/a/img69/9994/scrncp00014d.png
 
http://imageshack.us/a/img826/9500/scrncp00016.png
 
http://imageshack.us/a/img607/6585/scrncp00020.png